<svg width="1200" height="1200" viewBox="0 0 1200 1200" fill="none" xmlns="http://www.w3.org/2000/svg">
  <rect width="1200" height="1200" fill="#0B0B0B"/>
  <rect width="1200" height="1200" fill="url(#bg)"/>
  <circle cx="284" cy="336" r="108" fill="#F5BC36" fill-opacity="0.22"/>
  <circle cx="600" cy="292" r="132" fill="#3F69AF" fill-opacity="0.34"/>
  <circle cx="916" cy="336" r="108" fill="#F5BC36" fill-opacity="0.22"/>
  <path d="M214 595C262 532 312 532 360 595C407 658 456 658 504 595C552 532 602 532 650 595C698 658 747 658 795 595C843 532 892 532 940 595" stroke="#F5BC36" stroke-opacity="0.74" stroke-width="13" stroke-linecap="round"/>
  <path d="M204 756C289 700 377 700 462 756C547 812 635 812 720 756C805 700 893 700 978 756" stroke="#3F69AF" stroke-opacity="0.72" stroke-width="18" stroke-linecap="round"/>
  <g opacity="0.95">
    <rect x="248" y="874" width="70" height="170" rx="18" fill="#F5BC36" fill-opacity="0.78"/>
    <rect x="370" y="824" width="70" height="220" rx="18" fill="#3F69AF" fill-opacity="0.82"/>
    <rect x="492" y="884" width="70" height="160" rx="18" fill="#F5BC36" fill-opacity="0.68"/>
    <rect x="614" y="800" width="70" height="244" rx="18" fill="#3F69AF" fill-opacity="0.86"/>
    <rect x="736" y="872" width="70" height="172" rx="18" fill="#F5BC36" fill-opacity="0.72"/>
    <rect x="858" y="832" width="70" height="212" rx="18" fill="#3F69AF" fill-opacity="0.72"/>
  </g>
  <g fill="#F5BC36" opacity="0.75">
    <path d="M174 212L199 238L174 264L149 238L174 212Z"/>
    <path d="M986 188L1012 215L986 242L960 215L986 188Z"/>
    <path d="M1044 476L1064 496L1044 516L1024 496L1044 476Z"/>
    <path d="M154 486L176 508L154 530L132 508L154 486Z"/>
  </g>
  <defs>
    <linearGradient id="bg" x1="140" y1="114" x2="1038" y2="1072" gradientUnits="userSpaceOnUse">
      <stop stop-color="#233E67"/>
      <stop offset="0.42" stop-color="#101820"/>
      <stop offset="1" stop-color="#0B0B0B"/>
    </linearGradient>
  </defs>
</svg>
